# xmcd
#
# Track frame offsets: 
#        150
#        24385
#        47797
#        65090
#
# Disc length: 1140 seconds
#
# Revision: 2
# Processed by: cddbd v1.5.2PL0 Copyright (c) Steve Scherf et al.
# Submitted via: ExactAudioCopy v1.0b3
#
DISCID=31047204
DTITLE=Tequilajazzz - Berlin (Сингл)
DYEAR=2007
DGENRE=Rock
TTITLE0=Berlin
TTITLE1=Спорим
TTITLE2=Волчий билет
TTITLE3=Америки
EXTD=
EXTT0=
EXTT1=
EXTT2=
EXTT3=
PLAYORDER=
